STARTFONT 2.1
COMMENT
COMMENT Converted from OpenType font "BeVietnam-Regular.ttf" by "otf2bdf 3.0".
COMMENT
FONT -FreeType-Be Vietnam-Medium-R-Normal--11-80-100-100-P-53-ISO10646-1
SIZE 8 100 100
FONTBOUNDINGBOX 17 15 -4 -3
STARTPROPERTIES 19
FOUNDRY "FreeType"
FAMILY_NAME "Be Vietnam"
WEIGHT_NAME "Medium"
SLANT "R"
SETWIDTH_NAME "Normal"
ADD_STYLE_NAME ""
PIXEL_SIZE 11
POINT_SIZE 80
RESOLUTION_X 100
RESOLUTION_Y 100
SPACING "P"
AVERAGE_WIDTH 53
CHARSET_REGISTRY "ISO10646"
CHARSET_ENCODING "1"
FONT_ASCENT 13
FONT_DESCENT 2
COPYRIGHT "Copyright 2019 The Bevietnam Project Authors (https://github.com/bettergui/beVietnam)"
_OTF_FONTFILE "BeVietnam-Regular.ttf"
_OTF_PSNAME "BeVietnam-Regular"
ENDPROPERTIES
CHARS 445
STARTCHAR 000D
ENCODING 13
SWIDTH 540 0
DWIDTH 6 0
BBX 0 0 0 0
BITMAP
ENDCHAR
STARTCHAR 0020
ENCODING 32
SWIDTH 180 0
DWIDTH 2 0
BBX 0 0 0 0
BITMAP
ENDCHAR
STARTCHAR 0021
ENCODING 33
SWIDTH 180 0
DWIDTH 2 0
BBX 1 8 1 0
BITMAP
80
80
80
80
80
80
00
80
ENDCHAR
STARTCHAR 0022
ENCODING 34
SWIDTH 450 0
DWIDTH 5 0
BBX 4 2 1 6
BITMAP
A0
B0
ENDCHAR
STARTCHAR 0023
ENCODING 35
SWIDTH 810 0
DWIDTH 9 0
BBX 8 8 1 0
BITMAP
12
24
FF
24
24
FE
48
48
ENDCHAR
STARTCHAR 0024
ENCODING 36
SWIDTH 540 0
DWIDTH 6 0
BBX 5 8 1 -1
BITMAP
60
D0
C8
C0
30
48
C8
70
ENDCHAR
STARTCHAR 0025
ENCODING 37
SWIDTH 810 0
DWIDTH 9 0
BBX 9 8 0 0
BITMAP
6200
A400
A400
4800
0800
1380
1280
2380
ENDCHAR
STARTCHAR 0026
ENCODING 38
SWIDTH 630 0
DWIDTH 7 0
BBX 6 8 1 0
BITMAP
70
48
40
40
E8
98
98
E4
ENDCHAR
STARTCHAR 0027
ENCODING 39
SWIDTH 270 0
DWIDTH 3 0
BBX 1 3 1 6
BITMAP
80
80
80
ENDCHAR
STARTCHAR 0028
ENCODING 40
SWIDTH 450 0
DWIDTH 5 0
BBX 3 10 1 -1
BITMAP
60
40
40
80
80
80
80
40
40
20
ENDCHAR
STARTCHAR 0029
ENCODING 41
SWIDTH 450 0
DWIDTH 5 0
BBX 3 11 1 -2
BITMAP
80
40
40
20
20
20
20
20
20
40
40
ENDCHAR
STARTCHAR 002A
ENCODING 42
SWIDTH 450 0
DWIDTH 5 0
BBX 4 4 1 5
BITMAP
40
D0
60
F0
ENDCHAR
STARTCHAR 002B
ENCODING 43
SWIDTH 540 0
DWIDTH 6 0
BBX 4 5 1 1
BITMAP
20
20
F0
20
20
ENDCHAR
STARTCHAR 002C
ENCODING 44
SWIDTH 270 0
DWIDTH 3 0
BBX 1 3 1 -2
BITMAP
80
80
80
ENDCHAR
STARTCHAR 002D
ENCODING 45
SWIDTH 540 0
DWIDTH 6 0
BBX 4 1 1 3
BITMAP
F0
ENDCHAR
STARTCHAR 002E
ENCODING 46
SWIDTH 270 0
DWIDTH 3 0
BBX 1 1 1 0
BITMAP
80
ENDCHAR
STARTCHAR 002F
ENCODING 47
SWIDTH 450 0
DWIDTH 5 0
BBX 4 11 1 -2
BITMAP
10
10
10
20
20
40
40
40
80
80
80
ENDCHAR
STARTCHAR 0030
ENCODING 48
SWIDTH 540 0
DWIDTH 6 0
BBX 5 8 1 0
BITMAP
70
88
88
88
88
88
88
70
ENDCHAR
STARTCHAR 0031
ENCODING 49
SWIDTH 450 0
DWIDTH 5 0
BBX 4 8 1 0
BITMAP
60
A0
20
20
20
20
20
F0
ENDCHAR
STARTCHAR 0032
ENCODING 50
SWIDTH 540 0
DWIDTH 6 0
BBX 5 8 1 0
BITMAP
70
88
88
08
10
20
40
F8
ENDCHAR
STARTCHAR 0033
ENCODING 51
SWIDTH 540 0
DWIDTH 6 0
BBX 5 8 1 0
BITMAP
70
88
08
10
30
08
88
F0
ENDCHAR
STARTCHAR 0034
ENCODING 52
SWIDTH 540 0
DWIDTH 6 0
BBX 5 8 1 0
BITMAP
10
30
50
50
90
F8
10
10
ENDCHAR
STARTCHAR 0035
ENCODING 53
SWIDTH 540 0
DWIDTH 6 0
BBX 5 8 1 0
BITMAP
F8
80
80
F0
08
08
88
70
ENDCHAR
STARTCHAR 0036
ENCODING 54
SWIDTH 540 0
DWIDTH 6 0
BBX 5 8 1 0
BITMAP
20
40
40
F0
88
88
88
70
ENDCHAR
STARTCHAR 0037
ENCODING 55
SWIDTH 450 0
DWIDTH 5 0
BBX 5 8 0 0
BITMAP
F8
08
08
10
10
20
20
40
ENDCHAR
STARTCHAR 0038
ENCODING 56
SWIDTH 540 0
DWIDTH 6 0
BBX 5 8 1 0
BITMAP
70
88
88
D0
A8
88
88
F0
ENDCHAR
STARTCHAR 0039
ENCODING 57
SWIDTH 540 0
DWIDTH 6 0
BBX 5 8 1 0
BITMAP
70
88
88
88
F8
10
20
20
ENDCHAR
STARTCHAR 003A
ENCODING 58
SWIDTH 270 0
DWIDTH 3 0
BBX 1 6 1 0
BITMAP
80
00
00
00
00
80
ENDCHAR
STARTCHAR 003B
ENCODING 59
SWIDTH 270 0
DWIDTH 3 0
BBX 1 8 1 -2
BITMAP
80
00
00
00
00
80
80
80
ENDCHAR
STARTCHAR 003C
ENCODING 60
SWIDTH 540 0
DWIDTH 6 0
BBX 4 5 1 1
BITMAP
10
60
80
60
10
ENDCHAR
STARTCHAR 003D
ENCODING 61
SWIDTH 630 0
DWIDTH 7 0
BBX 6 3 1 2
BITMAP
FC
00
FC
ENDCHAR
STARTCHAR 003E
ENCODING 62
SWIDTH 540 0
DWIDTH 6 0
BBX 4 5 1 1
BITMAP
80
60
10
60
80
ENDCHAR
STARTCHAR 003F
ENCODING 63
SWIDTH 540 0
DWIDTH 6 0
BBX 5 8 1 0
BITMAP
70
88
88
10
20
20
00
20
ENDCHAR
STARTCHAR 0040
ENCODING 64
SWIDTH 990 0
DWIDTH 11 0
BBX 9 10 1 -2
BITMAP
1E00
6100
8080
9C80
A480
A480
9680
8900
4000
3F00
ENDCHAR
STARTCHAR 0041
ENCODING 65
SWIDTH 630 0
DWIDTH 7 0
BBX 6 8 1 0
BITMAP
20
30
50
50
48
F8
84
84
ENDCHAR
STARTCHAR 0042
ENCODING 66
SWIDTH 540 0
DWIDTH 6 0
BBX 5 8 1 0
BITMAP
F0
88
88
98
E8
88
88
F8
ENDCHAR
STARTCHAR 0043
ENCODING 67
SWIDTH 630 0
DWIDTH 7 0
BBX 6 8 1 0
BITMAP
78
C4
84
80
80
80
84
78
ENDCHAR
STARTCHAR 0044
ENCODING 68
SWIDTH 630 0
DWIDTH 7 0
BBX 6 8 1 0
BITMAP
F0
88
84
84
84
84
8C
F8
ENDCHAR
STARTCHAR 0045
ENCODING 69
SWIDTH 540 0
DWIDTH 6 0
BBX 5 8 1 0
BITMAP
F8
80
80
80
F0
80
80
F8
ENDCHAR
STARTCHAR 0046
ENCODING 70
SWIDTH 450 0
DWIDTH 5 0
BBX 4 8 1 0
BITMAP
F0
80
80
80
F0
80
80
80
ENDCHAR
STARTCHAR 0047
ENCODING 71
SWIDTH 630 0
DWIDTH 7 0
BBX 6 8 1 0
BITMAP
78
84
84
80
9C
84
84
7C
ENDCHAR
STARTCHAR 0048
ENCODING 72
SWIDTH 630 0
DWIDTH 7 0
BBX 6 8 1 0
BITMAP
84
84
84
84
FC
84
84
84
ENDCHAR
STARTCHAR 0049
ENCODING 73
SWIDTH 180 0
DWIDTH 2 0
BBX 1 8 1 0
BITMAP
80
80
80
80
80
80
80
80
ENDCHAR
STARTCHAR 004A
ENCODING 74
SWIDTH 270 0
DWIDTH 3 0
BBX 2 8 1 0
BITMAP
40
40
40
40
40
40
40
C0
ENDCHAR
STARTCHAR 004B
ENCODING 75
SWIDTH 540 0
DWIDTH 6 0
BBX 5 8 1 0
BITMAP
88
90
A0
C0
A0
A0
90
88
ENDCHAR
STARTCHAR 004C
ENCODING 76
SWIDTH 450 0
DWIDTH 5 0
BBX 4 8 1 0
BITMAP
80
80
80
80
80
80
80
F0
ENDCHAR
STARTCHAR 004D
ENCODING 77
SWIDTH 810 0
DWIDTH 9 0
BBX 7 8 1 0
BITMAP
82
C6
C6
A6
AA
AA
92
92
ENDCHAR
STARTCHAR 004E
ENCODING 78
SWIDTH 630 0
DWIDTH 7 0
BBX 6 8 1 0
BITMAP
84
C4
C4
A4
94
94
8C
84
ENDCHAR
STARTCHAR 004F
ENCODING 79
SWIDTH 720 0
DWIDTH 8 0
BBX 7 8 1 0
BITMAP
78
C4
84
82
82
84
84
78
ENDCHAR
STARTCHAR 0050
ENCODING 80
SWIDTH 540 0
DWIDTH 6 0
BBX 5 8 1 0
BITMAP
F0
88
88
88
F8
80
80
80
ENDCHAR
STARTCHAR 0051
ENCODING 81
SWIDTH 720 0
DWIDTH 8 0
BBX 7 9 1 -1
BITMAP
78
C4
84
82
82
94
8C
78
04
ENDCHAR
STARTCHAR 0052
ENCODING 82
SWIDTH 540 0
DWIDTH 6 0
BBX 5 8 1 0
BITMAP
F0
88
88
88
F0
90
90
88
ENDCHAR
STARTCHAR 0053
ENCODING 83
SWIDTH 540 0
DWIDTH 6 0
BBX 5 8 1 0
BITMAP
70
88
80
C0
38
88
88
70
ENDCHAR
STARTCHAR 0054
ENCODING 84
SWIDTH 540 0
DWIDTH 6 0
BBX 6 8 0 0
BITMAP
FC
10
10
10
10
10
10
10
ENDCHAR
STARTCHAR 0055
ENCODING 85
SWIDTH 630 0
DWIDTH 7 0
BBX 6 8 1 0
BITMAP
84
84
84
84
84
84
8C
78
ENDCHAR
STARTCHAR 0056
ENCODING 86
SWIDTH 630 0
DWIDTH 7 0
BBX 7 8 0 0
BITMAP
82
44
44
44
28
28
28
10
ENDCHAR
STARTCHAR 0057
ENCODING 87
SWIDTH 990 0
DWIDTH 11 0
BBX 11 8 0 0
BITMAP
8420
8420
4A40
4A40
4A40
3180
3180
3180
ENDCHAR
STARTCHAR 0058
ENCODING 88
SWIDTH 630 0
DWIDTH 7 0
BBX 6 8 1 0
BITMAP
84
88
50
30
30
50
C8
8C
ENDCHAR
STARTCHAR 0059
ENCODING 89
SWIDTH 540 0
DWIDTH 6 0
BBX 5 8 1 0
BITMAP
88
88
50
50
20
20
20
20
ENDCHAR
STARTCHAR 005A
ENCODING 90
SWIDTH 540 0
DWIDTH 6 0
BBX 5 8 1 0
BITMAP
F8
08
10
20
60
40
80
F8
ENDCHAR
STARTCHAR 005B
ENCODING 91
SWIDTH 360 0
DWIDTH 4 0
BBX 3 11 1 -2
BITMAP
E0
80
80
80
80
80
80
80
80
80
E0
ENDCHAR
STARTCHAR 005C
ENCODING 92
SWIDTH 450 0
DWIDTH 5 0
BBX 5 11 0 -2
BITMAP
80
40
40
40
20
20
10
10
10
08
08
ENDCHAR
STARTCHAR 005D
ENCODING 93
SWIDTH 360 0
DWIDTH 4 0
BBX 3 11 1 -2
BITMAP
E0
20
20
20
20
20
20
20
20
20
E0
ENDCHAR
STARTCHAR 005E
ENCODING 94
SWIDTH 360 0
DWIDTH 4 0
BBX 4 2 0 6
BITMAP
60
90
ENDCHAR
STARTCHAR 005F
ENCODING 95
SWIDTH 630 0
DWIDTH 7 0
BBX 6 1 1 0
BITMAP
FC
ENDCHAR
STARTCHAR 0060
ENCODING 96
SWIDTH 180 0
DWIDTH 2 0
BBX 1 2 1 7
BITMAP
80
80
ENDCHAR
STARTCHAR 0061
ENCODING 97
SWIDTH 540 0
DWIDTH 6 0
BBX 5 6 1 0
BITMAP
68
98
88
88
88
F8
ENDCHAR
STARTCHAR 0062
ENCODING 98
SWIDTH 540 0
DWIDTH 6 0
BBX 5 8 1 0
BITMAP
80
80
F0
88
88
88
88
F0
ENDCHAR
STARTCHAR 0063
ENCODING 99
SWIDTH 540 0
DWIDTH 6 0
BBX 5 6 1 0
BITMAP
70
88
80
80
88
70
ENDCHAR
STARTCHAR 0064
ENCODING 100
SWIDTH 540 0
DWIDTH 6 0
BBX 5 8 1 0
BITMAP
08
08
68
98
88
88
88
F8
ENDCHAR
STARTCHAR 0065
ENCODING 101
SWIDTH 540 0
DWIDTH 6 0
BBX 5 6 1 0
BITMAP
70
88
88
F0
88
70
ENDCHAR
STARTCHAR 0066
ENCODING 102
SWIDTH 360 0
DWIDTH 4 0
BBX 3 8 1 0
BITMAP
60
80
E0
80
80
80
80
80
ENDCHAR
STARTCHAR 0067
ENCODING 103
SWIDTH 540 0
DWIDTH 6 0
BBX 5 8 1 -2
BITMAP
68
98
88
88
88
78
08
70
ENDCHAR
STARTCHAR 0068
ENCODING 104
SWIDTH 540 0
DWIDTH 6 0
BBX 5 8 1 0
BITMAP
80
80
F0
88
88
88
88
88
ENDCHAR
STARTCHAR 0069
ENCODING 105
SWIDTH 180 0
DWIDTH 2 0
BBX 1 8 1 0
BITMAP
80
00
80
80
80
80
80
80
ENDCHAR
STARTCHAR 006A
ENCODING 106
SWIDTH 180 0
DWIDTH 2 0
BBX 2 10 0 -2
BITMAP
40
00
40
40
40
40
40
40
40
C0
ENDCHAR
STARTCHAR 006B
ENCODING 107
SWIDTH 450 0
DWIDTH 5 0
BBX 4 8 1 0
BITMAP
80
80
90
A0
C0
C0
A0
90
ENDCHAR
STARTCHAR 006C
ENCODING 108
SWIDTH 270 0
DWIDTH 3 0
BBX 2 8 1 0
BITMAP
80
80
80
80
80
80
80
C0
ENDCHAR
STARTCHAR 006D
ENCODING 109
SWIDTH 900 0
DWIDTH 10 0
BBX 9 6 1 0
BITMAP
F700
8880
8880
8880
8880
8880
ENDCHAR
STARTCHAR 006E
ENCODING 110
SWIDTH 540 0
DWIDTH 6 0
BBX 5 6 1 0
BITMAP
F0
88
88
88
88
88
ENDCHAR
STARTCHAR 006F
ENCODING 111
SWIDTH 540 0
DWIDTH 6 0
BBX 5 6 1 0
BITMAP
70
88
88
88
88
70
ENDCHAR
STARTCHAR 0070
ENCODING 112
SWIDTH 540 0
DWIDTH 6 0
BBX 5 8 1 -2
BITMAP
F0
88
88
88
88
F0
80
80
ENDCHAR
STARTCHAR 0071
ENCODING 113
SWIDTH 540 0
DWIDTH 6 0
BBX 5 8 1 -2
BITMAP
68
98
88
88
88
F8
08
08
ENDCHAR
STARTCHAR 0072
ENCODING 114
SWIDTH 270 0
DWIDTH 3 0
BBX 3 6 1 0
BITMAP
E0
80
80
80
80
80
ENDCHAR
STARTCHAR 0073
ENCODING 115
SWIDTH 450 0
DWIDTH 5 0
BBX 4 6 1 0
BITMAP
E0
90
80
70
90
F0
ENDCHAR
STARTCHAR 0074
ENCODING 116
SWIDTH 360 0
DWIDTH 4 0
BBX 4 8 0 0
BITMAP
40
40
F0
40
40
40
40
30
ENDCHAR
STARTCHAR 0075
ENCODING 117
SWIDTH 540 0
DWIDTH 6 0
BBX 5 6 1 0
BITMAP
88
88
88
88
88
F8
ENDCHAR
STARTCHAR 0076
ENCODING 118
SWIDTH 540 0
DWIDTH 6 0
BBX 6 6 0 0
BITMAP
84
48
48
28
30
30
ENDCHAR
STARTCHAR 0077
ENCODING 119
SWIDTH 810 0
DWIDTH 9 0
BBX 9 6 0 0
BITMAP
8880
4900
5500
5500
5500
2200
ENDCHAR
STARTCHAR 0078
ENCODING 120
SWIDTH 540 0
DWIDTH 6 0
BBX 4 6 1 0
BITMAP
90
90
60
60
90
90
ENDCHAR
STARTCHAR 0079
ENCODING 121
SWIDTH 450 0
DWIDTH 5 0
BBX 6 8 0 -2
BITMAP
84
48
48
30
30
30
20
60
ENDCHAR
STARTCHAR 007A
ENCODING 122
SWIDTH 450 0
DWIDTH 5 0
BBX 4 6 1 0
BITMAP
F0
10
20
40
80
F0
ENDCHAR
STARTCHAR 007B
ENCODING 123
SWIDTH 450 0
DWIDTH 5 0
BBX 3 11 1 -2
BITMAP
60
40
40
40
40
80
40
40
40
40
60
ENDCHAR
STARTCHAR 007C
ENCODING 124
SWIDTH 270 0
DWIDTH 3 0
BBX 1 14 1 -3
BITMAP
80
80
80
80
80
80
80
80
80
80
80
80
80
80
ENDCHAR
STARTCHAR 007D
ENCODING 125
SWIDTH 450 0
DWIDTH 5 0
BBX 3 11 2 -2
BITMAP
C0
40
40
40
40
60
40
40
40
40
C0
ENDCHAR
STARTCHAR 007E
ENCODING 126
SWIDTH 540 0
DWIDTH 6 0
BBX 4 1 1 4
BITMAP
F0
ENDCHAR
STARTCHAR 00A0
ENCODING 160
SWIDTH 180 0
DWIDTH 2 0
BBX 0 0 0 0
BITMAP
ENDCHAR
STARTCHAR 00A1
ENCODING 161
SWIDTH 180 0
DWIDTH 2 0
BBX 1 9 1 -3
BITMAP
80
80
80
80
80
80
80
80
80
ENDCHAR
STARTCHAR 00A2
ENCODING 162
SWIDTH 540 0
DWIDTH 6 0
BBX 5 6 1 0
BITMAP
70
C8
C0
C0
C8
70
ENDCHAR
STARTCHAR 00A3
ENCODING 163
SWIDTH 540 0
DWIDTH 6 0
BBX 6 8 0 0
BITMAP
38
44
44
40
78
20
20
FC
ENDCHAR
STARTCHAR 00A4
ENCODING 164
SWIDTH 540 0
DWIDTH 6 0
BBX 5 5 1 2
BITMAP
F0
88
88
90
60
ENDCHAR
STARTCHAR 00A5
ENCODING 165
SWIDTH 540 0
DWIDTH 6 0
BBX 5 8 1 0
BITMAP
88
88
50
50
20
70
F0
20
ENDCHAR
STARTCHAR 00A6
ENCODING 166
SWIDTH 270 0
DWIDTH 3 0
BBX 1 14 1 -3
BITMAP
80
80
80
80
80
80
00
00
80
80
80
80
80
80
ENDCHAR
STARTCHAR 00A7
ENCODING 167
SWIDTH 540 0
DWIDTH 6 0
BBX 5 8 1 0
BITMAP
F0
90
C0
B0
88
70
90
F0
ENDCHAR
STARTCHAR 00A8
ENCODING 168
SWIDTH 360 0
DWIDTH 4 0
BBX 4 1 0 7
BITMAP
D0
ENDCHAR
STARTCHAR 00A9
ENCODING 169
SWIDTH 810 0
DWIDTH 9 0
BBX 8 8 0 0
BITMAP
1C
63
5D
A1
A1
95
49
3E
ENDCHAR
STARTCHAR 00AA
ENCODING 170
SWIDTH 90 0
DWIDTH 1 0
BBX 2 2 0 4
BITMAP
C0
C0
ENDCHAR
STARTCHAR 00AB
ENCODING 171
SWIDTH 630 0
DWIDTH 7 0
BBX 6 5 0 1
BITMAP
24
48
90
48
24
ENDCHAR
STARTCHAR 00AC
ENCODING 172
SWIDTH 630 0
DWIDTH 7 0
BBX 5 2 1 3
BITMAP
F8
08
ENDCHAR
STARTCHAR 00AD
ENCODING 173
SWIDTH 540 0
DWIDTH 6 0
BBX 4 1 1 3
BITMAP
F0
ENDCHAR
STARTCHAR 00AE
ENCODING 174
SWIDTH 270 0
DWIDTH 3 0
BBX 3 3 0 5
BITMAP
60
60
E0
ENDCHAR
STARTCHAR 00AF
ENCODING 175
SWIDTH 360 0
DWIDTH 4 0
BBX 4 1 0 7
BITMAP
F0
ENDCHAR
STARTCHAR 00B0
ENCODING 176
SWIDTH 270 0
DWIDTH 3 0
BBX 2 2 1 7
BITMAP
80
C0
ENDCHAR
STARTCHAR 00B1
ENCODING 177
SWIDTH 540 0
DWIDTH 6 0
BBX 5 6 1 0
BITMAP
20
20
F8
20
00
F8
ENDCHAR
STARTCHAR 00B2
ENCODING 178
SWIDTH 270 0
DWIDTH 3 0
BBX 3 4 0 4
BITMAP
E0
20
40
E0
ENDCHAR
STARTCHAR 00B3
ENCODING 179
SWIDTH 270 0
DWIDTH 3 0
BBX 3 4 0 4
BITMAP
E0
60
20
60
ENDCHAR
STARTCHAR 00B4
ENCODING 180
SWIDTH 180 0
DWIDTH 2 0
BBX 1 2 1 7
BITMAP
80
80
ENDCHAR
STARTCHAR 00B5
ENCODING 181
SWIDTH 630 0
DWIDTH 7 0
BBX 6 8 1 -2
BITMAP
88
88
88
88
98
EC
80
80
ENDCHAR
STARTCHAR 00B6
ENCODING 182
SWIDTH 450 0
DWIDTH 5 0
BBX 5 8 0 0
BITMAP
78
F8
F8
78
18
18
18
18
ENDCHAR
STARTCHAR 00B7
ENCODING 183
SWIDTH 270 0
DWIDTH 3 0
BBX 1 2 1 3
BITMAP
80
80
ENDCHAR
STARTCHAR 00B8
ENCODING 184
SWIDTH 180 0
DWIDTH 2 0
BBX 2 3 0 -3
BITMAP
80
40
C0
ENDCHAR
STARTCHAR 00B9
ENCODING 185
SWIDTH 180 0
DWIDTH 2 0
BBX 3 4 0 4
BITMAP
C0
40
40
E0
ENDCHAR
STARTCHAR 00BA
ENCODING 186
SWIDTH 90 0
DWIDTH 1 0
BBX 2 2 0 4
BITMAP
C0
80
ENDCHAR
STARTCHAR 00BB
ENCODING 187
SWIDTH 630 0
DWIDTH 7 0
BBX 6 5 1 1
BITMAP
90
48
24
48
90
ENDCHAR
STARTCHAR 00BC
ENCODING 188
SWIDTH 810 0
DWIDTH 9 0
BBX 8 8 0 0
BITMAP
42
C2
44
E8
09
13
15
23
ENDCHAR
STARTCHAR 00BD
ENCODING 189
SWIDTH 810 0
DWIDTH 9 0
BBX 9 8 0 0
BITMAP
4200
C200
4400
E400
0980
1080
1100
2380
ENDCHAR
STARTCHAR 00BE
ENCODING 190
SWIDTH 810 0
DWIDTH 9 0
BBX 7 8 1 0
BITMAP
C2
44
48
48
92
16
26
42
ENDCHAR
STARTCHAR 00BF
ENCODING 191
SWIDTH 540 0
DWIDTH 6 0
BBX 5 8 1 -3
BITMAP
20
00
20
40
80
88
98
60
ENDCHAR
STARTCHAR 00C0
ENCODING 192
SWIDTH 630 0
DWIDTH 7 0
BBX 6 11 1 0
BITMAP
40
20
00
20
30
50
50
48
F8
84
84
ENDCHAR
STARTCHAR 00C1
ENCODING 193
SWIDTH 630 0
DWIDTH 7 0
BBX 6 11 1 0
BITMAP
10
10
00
20
30
50
50
48
F8
84
84
ENDCHAR
STARTCHAR 00C2
ENCODING 194
SWIDTH 630 0
DWIDTH 7 0
BBX 6 10 1 0
BITMAP
30
40
20
30
50
50
48
F8
84
84
ENDCHAR
STARTCHAR 00C3
ENCODING 195
SWIDTH 630 0
DWIDTH 7 0
BBX 6 10 1 0
BITMAP
70
00
20
30
50
50
48
F8
84
84
ENDCHAR
STARTCHAR 00C4
ENCODING 196
SWIDTH 630 0
DWIDTH 7 0
BBX 6 10 1 0
BITMAP
58
00
20
30
50
50
48
F8
84
84
ENDCHAR
STARTCHAR 00C5
ENCODING 197
SWIDTH 630 0
DWIDTH 7 0
BBX 6 11 1 0
BITMAP
20
50
20
20
30
50
50
48
F8
84
84
ENDCHAR
STARTCHAR 00C6
ENCODING 198
SWIDTH 900 0
DWIDTH 10 0
BBX 10 8 0 0
BITMAP
0FC0
0C00
1400
1400
2780
3C00
4400
C7C0
ENDCHAR
STARTCHAR 00C7
ENCODING 199
SWIDTH 630 0
DWIDTH 7 0
BBX 6 11 1 -3
BITMAP
78
C4
84
80
80
80
84
78
20
18
10
ENDCHAR
STARTCHAR 00C8
ENCODING 200
SWIDTH 540 0
DWIDTH 6 0
BBX 5 11 1 0
BITMAP
C0
40
00
F8
80
80
80
F0
80
80
F8
ENDCHAR
STARTCHAR 00C9
ENCODING 201
SWIDTH 540 0
DWIDTH 6 0
BBX 5 11 1 0
BITMAP
10
20
00
F8
80
80
80
F0
80
80
F8
ENDCHAR
STARTCHAR 00CA
ENCODING 202
SWIDTH 540 0
DWIDTH 6 0
BBX 5 10 1 0
BITMAP
60
10
F8
80
80
80
F0
80
80
F8
ENDCHAR
STARTCHAR 00CB
ENCODING 203
SWIDTH 540 0
DWIDTH 6 0
BBX 5 10 1 0
BITMAP
50
00
F8
80
80
80
F0
80
80
F8
ENDCHAR
STARTCHAR 00CC
ENCODING 204
SWIDTH 180 0
DWIDTH 2 0
BBX 2 11 0 0
BITMAP
80
80
00
40
40
40
40
40
40
40
40
ENDCHAR
STARTCHAR 00CD
ENCODING 205
SWIDTH 180 0
DWIDTH 2 0
BBX 2 11 1 0
BITMAP
40
80
00
80
80
80
80
80
80
80
80
ENDCHAR
STARTCHAR 00CE
ENCODING 206
SWIDTH 180 0
DWIDTH 2 0
BBX 3 10 0 0
BITMAP
C0
20
40
40
40
40
40
40
40
40
ENDCHAR
STARTCHAR 00CF
ENCODING 207
SWIDTH 180 0
DWIDTH 2 0
BBX 3 10 0 0
BITMAP
A0
00
40
40
40
40
40
40
40
40
ENDCHAR
STARTCHAR 00D0
ENCODING 208
SWIDTH 630 0
DWIDTH 7 0
BBX 6 8 1 0
BITMAP
F0
8C
84
84
C4
84
84
F8
ENDCHAR
STARTCHAR 00D1
ENCODING 209
SWIDTH 630 0
DWIDTH 7 0
BBX 6 10 1 0
BITMAP
70
00
84
C4
C4
A4
94
94
8C
84
ENDCHAR
STARTCHAR 00D2
ENCODING 210
SWIDTH 720 0
DWIDTH 8 0
BBX 7 11 1 0
BITMAP
40
20
00
78
C4
84
82
82
84
84
78
ENDCHAR
STARTCHAR 00D3
ENCODING 211
SWIDTH 720 0
DWIDTH 8 0
BBX 7 11 1 0
BITMAP
08
10
00
78
C4
84
82
82
84
84
78
ENDCHAR
STARTCHAR 00D4
ENCODING 212
SWIDTH 720 0
DWIDTH 8 0
BBX 7 10 1 0
BITMAP
30
00
78
C4
84
82
82
84
84
78
ENDCHAR
STARTCHAR 00D5
ENCODING 213
SWIDTH 720 0
DWIDTH 8 0
BBX 7 10 1 0
BITMAP
38
00
78
C4
84
82
82
84
84
78
ENDCHAR
STARTCHAR 00D6
ENCODING 214
SWIDTH 720 0
DWIDTH 8 0
BBX 7 10 1 0
BITMAP
68
00
78
C4
84
82
82
84
84
78
ENDCHAR
STARTCHAR 00D7
ENCODING 215
SWIDTH 540 0
DWIDTH 6 0
BBX 4 3 1 2
BITMAP
D0
60
70
ENDCHAR
STARTCHAR 00D8
ENCODING 216
SWIDTH 720 0
DWIDTH 8 0
BBX 7 8 1 0
BITMAP
7C
CC
8C
92
A2
A4
C4
F8
ENDCHAR
STARTCHAR 00D9
ENCODING 217
SWIDTH 630 0
DWIDTH 7 0
BBX 6 11 1 0
BITMAP
40
20
00
84
84
84
84
84
84
8C
78
ENDCHAR
STARTCHAR 00DA
ENCODING 218
SWIDTH 630 0
DWIDTH 7 0
BBX 6 11 1 0
BITMAP
08
10
00
84
84
84
84
84
84
8C
78
ENDCHAR
STARTCHAR 00DB
ENCODING 219
SWIDTH 630 0
DWIDTH 7 0
BBX 6 10 1 0
BITMAP
30
40
84
84
84
84
84
84
8C
78
ENDCHAR
STARTCHAR 00DC
ENCODING 220
SWIDTH 630 0
DWIDTH 7 0
BBX 6 10 1 0
BITMAP
58
00
84
84
84
84
84
84
8C
78
ENDCHAR
STARTCHAR 00DD
ENCODING 221
SWIDTH 540 0
DWIDTH 6 0
BBX 5 11 1 0
BITMAP
10
20
00
88
88
50
50
20
20
20
20
ENDCHAR
STARTCHAR 00DE
ENCODING 222
SWIDTH 540 0
DWIDTH 6 0
BBX 5 8 1 0
BITMAP
80
80
F8
88
88
88
F0
80
ENDCHAR
STARTCHAR 00DF
ENCODING 223
SWIDTH 540 0
DWIDTH 6 0
BBX 5 8 1 0
BITMAP
70
90
88
F0
90
88
88
B0
ENDCHAR
STARTCHAR 00E0
ENCODING 224
SWIDTH 540 0
DWIDTH 6 0
BBX 5 9 1 0
BITMAP
40
40
00
68
98
88
88
88
F8
ENDCHAR
STARTCHAR 00E1
ENCODING 225
SWIDTH 540 0
DWIDTH 6 0
BBX 5 9 1 0
BITMAP
10
20
00
68
98
88
88
88
F8
ENDCHAR
STARTCHAR 00E2
ENCODING 226
SWIDTH 540 0
DWIDTH 6 0
BBX 5 8 1 0
BITMAP
60
10
68
98
88
88
88
F8
ENDCHAR
STARTCHAR 00E3
ENCODING 227
SWIDTH 540 0
DWIDTH 6 0
BBX 5 8 1 0
BITMAP
70
00
68
98
88
88
88
F8
ENDCHAR
STARTCHAR 00E4
ENCODING 228
SWIDTH 540 0
DWIDTH 6 0
BBX 5 8 1 0
BITMAP
50
00
68
98
88
88
88
F8
ENDCHAR
STARTCHAR 00E5
ENCODING 229
SWIDTH 540 0
DWIDTH 6 0
BBX 5 9 1 0
BITMAP
20
60
00
68
98
88
88
88
F8
ENDCHAR
STARTCHAR 00E6
ENCODING 230
SWIDTH 900 0
DWIDTH 10 0
BBX 9 6 1 0
BITMAP
7700
9880
0880
FF00
9880
E700
ENDCHAR
STARTCHAR 00E7
ENCODING 231
SWIDTH 540 0
DWIDTH 6 0
BBX 5 9 1 -3
BITMAP
70
88
80
80
88
70
40
30
20
ENDCHAR
STARTCHAR 00E8
ENCODING 232
SWIDTH 540 0
DWIDTH 6 0
BBX 5 9 1 0
BITMAP
40
40
00
70
88
88
F0
88
70
ENDCHAR
STARTCHAR 00E9
ENCODING 233
SWIDTH 540 0
DWIDTH 6 0
BBX 5 9 1 0
BITMAP
10
20
00
70
88
88
F0
88
70
ENDCHAR
STARTCHAR 00EA
ENCODING 234
SWIDTH 540 0
DWIDTH 6 0
BBX 5 8 1 0
BITMAP
60
10
70
88
88
F0
88
70
ENDCHAR
STARTCHAR 00EB
ENCODING 235
SWIDTH 540 0
DWIDTH 6 0
BBX 5 8 1 0
BITMAP
50
00
70
88
88
F0
88
70
ENDCHAR
STARTCHAR 00EC
ENCODING 236
SWIDTH 180 0
DWIDTH 2 0
BBX 2 9 0 0
BITMAP
80
80
00
40
40
40
40
40
40
ENDCHAR
STARTCHAR 00ED
ENCODING 237
SWIDTH 180 0
DWIDTH 2 0
BBX 2 9 1 0
BITMAP
40
80
00
80
80
80
80
80
80
ENDCHAR
STARTCHAR 00EE
ENCODING 238
SWIDTH 180 0
DWIDTH 2 0
BBX 3 8 0 0
BITMAP
C0
20
40
40
40
40
40
40
ENDCHAR
STARTCHAR 00EF
ENCODING 239
SWIDTH 180 0
DWIDTH 2 0
BBX 3 8 0 0
BITMAP
A0
00
40
40
40
40
40
40
ENDCHAR
STARTCHAR 00F0
ENCODING 240
SWIDTH 540 0
DWIDTH 6 0
BBX 6 9 0 0
BITMAP
34
18
04
74
4C
84
84
44
78
ENDCHAR
STARTCHAR 00F1
ENCODING 241
SWIDTH 540 0
DWIDTH 6 0
BBX 5 8 1 0
BITMAP
70
00
F0
88
88
88
88
88
ENDCHAR
STARTCHAR 00F2
ENCODING 242
SWIDTH 540 0
DWIDTH 6 0
BBX 5 9 1 0
BITMAP
40
40
00
70
88
88
88
88
70
ENDCHAR
STARTCHAR 00F3
ENCODING 243
SWIDTH 540 0
DWIDTH 6 0
BBX 5 9 1 0
BITMAP
10
20
00
70
88
88
88
88
70
ENDCHAR
STARTCHAR 00F4
ENCODING 244
SWIDTH 540 0
DWIDTH 6 0
BBX 5 8 1 0
BITMAP
60
10
70
88
88
88
88
70
ENDCHAR
STARTCHAR 00F5
ENCODING 245
SWIDTH 540 0
DWIDTH 6 0
BBX 5 8 1 0
BITMAP
70
00
70
88
88
88
88
70
ENDCHAR
STARTCHAR 00F6
ENCODING 246
SWIDTH 540 0
DWIDTH 6 0
BBX 5 8 1 0
BITMAP
50
00
70
88
88
88
88
70
ENDCHAR
STARTCHAR 00F7
ENCODING 247
SWIDTH 540 0
DWIDTH 6 0
BBX 4 5 1 1
BITMAP
60
00
F0
00
60
ENDCHAR
STARTCHAR 00F8
ENCODING 248
SWIDTH 540 0
DWIDTH 6 0
BBX 5 6 1 0
BITMAP
70
A8
A8
C8
C8
70
ENDCHAR
STARTCHAR 00F9
ENCODING 249
SWIDTH 540 0
DWIDTH 6 0
BBX 5 9 1 0
BITMAP
40
40
00
88
88
88
88
88
F8
ENDCHAR
STARTCHAR 00FA
ENCODING 250
SWIDTH 540 0
DWIDTH 6 0
BBX 5 9 1 0
BITMAP
10
20
00
88
88
88
88
88
F8
ENDCHAR
STARTCHAR 00FB
ENCODING 251
SWIDTH 540 0
DWIDTH 6 0
BBX 5 8 1 0
BITMAP
60
10
88
88
88
88
88
F8
ENDCHAR
STARTCHAR 00FC
ENCODING 252
SWIDTH 540 0
DWIDTH 6 0
BBX 5 8 1 0
BITMAP
50
00
88
88
88
88
88
F8
ENDCHAR
STARTCHAR 00FD
ENCODING 253
SWIDTH 450 0
DWIDTH 5 0
BBX 6 11 0 -2
BITMAP
08
10
00
84
48
48
30
30
30
20
60
ENDCHAR
STARTCHAR 00FE
ENCODING 254
SWIDTH 540 0
DWIDTH 6 0
BBX 5 11 1 -3
BITMAP
80
80
F0
88
88
88
88
F0
80
80
80
ENDCHAR
STARTCHAR 00FF
ENCODING 255
SWIDTH 450 0
DWIDTH 5 0
BBX 6 10 0 -2
BITMAP
78
00
84
48
48
30
30
30
20
60
ENDCHAR
STARTCHAR 0100
ENCODING 256
SWIDTH 630 0
DWIDTH 7 0
BBX 6 9 1 0
BITMAP
30
20
30
50
50
48
F8
84
84
ENDCHAR
STARTCHAR 0101
ENCODING 257
SWIDTH 540 0
DWIDTH 6 0
BBX 5 7 1 0
BITMAP
70
68
98
88
88
88
F8
ENDCHAR
STARTCHAR 0102
ENCODING 258
SWIDTH 630 0
DWIDTH 7 0
BBX 6 10 1 0
BITMAP
40
30
20
30
50
50
48
F8
84
84
ENDCHAR
STARTCHAR 0103
ENCODING 259
SWIDTH 540 0
DWIDTH 6 0
BBX 5 8 1 0
BITMAP
50
20
68
98
88
88
88
F8
ENDCHAR
STARTCHAR 0104
ENCODING 260
SWIDTH 630 0
DWIDTH 7 0
BBX 6 10 1 -2
BITMAP
20
30
50
50
48
F8
84
84
08
04
ENDCHAR
STARTCHAR 0105
ENCODING 261
SWIDTH 540 0
DWIDTH 6 0
BBX 5 8 1 -2
BITMAP
68
98
88
88
88
F8
10
08
ENDCHAR
STARTCHAR 0106
ENCODING 262
SWIDTH 630 0
DWIDTH 7 0
BBX 6 11 1 0
BITMAP
08
10
00
78
C4
84
80
80
80
84
78
ENDCHAR
STARTCHAR 0107
ENCODING 263
SWIDTH 540 0
DWIDTH 6 0
BBX 5 9 1 0
BITMAP
10
20
00
70
88
80
80
88
70
ENDCHAR
STARTCHAR 010A
ENCODING 266
SWIDTH 630 0
DWIDTH 7 0
BBX 6 10 1 0
BITMAP
30
00
78
C4
84
80
80
80
84
78
ENDCHAR
STARTCHAR 010B
ENCODING 267
SWIDTH 540 0
DWIDTH 6 0
BBX 5 8 1 0
BITMAP
20
00
70
88
80
80
88
70
ENDCHAR
STARTCHAR 010C
ENCODING 268
SWIDTH 630 0
DWIDTH 7 0
BBX 6 10 1 0
BITMAP
30
00
78
C4
84
80
80
80
84
78
ENDCHAR
STARTCHAR 010D
ENCODING 269
SWIDTH 540 0
DWIDTH 6 0
BBX 5 8 1 0
BITMAP
50
20
70
88
80
80
88
70
ENDCHAR
STARTCHAR 010E
ENCODING 270
SWIDTH 630 0
DWIDTH 7 0
BBX 6 10 1 0
BITMAP
50
20
F0
88
84
84
84
84
8C
F8
ENDCHAR
STARTCHAR 010F
ENCODING 271
SWIDTH 720 0
DWIDTH 8 0
BBX 7 9 1 0
BITMAP
02
0A
0A
68
98
88
88
88
F8
ENDCHAR
STARTCHAR 0110
ENCODING 272
SWIDTH 630 0
DWIDTH 7 0
BBX 6 8 1 0
BITMAP
F0
8C
84
84
C4
84
84
F8
ENDCHAR
STARTCHAR 0111
ENCODING 273
SWIDTH 540 0
DWIDTH 6 0
BBX 5 8 1 0
BITMAP
08
18
68
98
88
88
88
F8
ENDCHAR
STARTCHAR 0112
ENCODING 274
SWIDTH 540 0
DWIDTH 6 0
BBX 5 9 1 0
BITMAP
60
F8
80
80
80
F0
80
80
F8
ENDCHAR
STARTCHAR 0113
ENCODING 275
SWIDTH 540 0
DWIDTH 6 0
BBX 5 7 1 0
BITMAP
60
70
88
88
F0
88
70
ENDCHAR
STARTCHAR 0116
ENCODING 278
SWIDTH 540 0
DWIDTH 6 0
BBX 5 10 1 0
BITMAP
20
00
F8
80
80
80
F0
80
80
F8
ENDCHAR
STARTCHAR 0117
ENCODING 279
SWIDTH 540 0
DWIDTH 6 0
BBX 5 8 1 0
BITMAP
20
00
70
88
88
F0
88
70
ENDCHAR
STARTCHAR 0118
ENCODING 280
SWIDTH 540 0
DWIDTH 6 0
BBX 5 10 1 -2
BITMAP
F8
80
80
80
F0
80
80
F8
10
08
ENDCHAR
STARTCHAR 0119
ENCODING 281
SWIDTH 540 0
DWIDTH 6 0
BBX 5 8 1 -2
BITMAP
70
88
88
F0
88
70
40
20
ENDCHAR
STARTCHAR 011A
ENCODING 282
SWIDTH 540 0
DWIDTH 6 0
BBX 5 10 1 0
BITMAP
50
20
F8
80
80
80
F0
80
80
F8
ENDCHAR
STARTCHAR 011B
ENCODING 283
SWIDTH 540 0
DWIDTH 6 0
BBX 5 8 1 0
BITMAP
50
20
70
88
88
F0
88
70
ENDCHAR
STARTCHAR 011E
ENCODING 286
SWIDTH 630 0
DWIDTH 7 0
BBX 6 10 1 0
BITMAP
48
30
78
84
84
80
9C
84
84
7C
ENDCHAR
STARTCHAR 011F
ENCODING 287
SWIDTH 540 0
DWIDTH 6 0
BBX 5 10 1 -2
BITMAP
50
20
68
98
88
88
88
78
08
70
ENDCHAR
STARTCHAR 0120
ENCODING 288
SWIDTH 630 0
DWIDTH 7 0
BBX 6 10 1 0
BITMAP
30
00
78
84
84
80
9C
84
84
7C
ENDCHAR
STARTCHAR 0121
ENCODING 289
SWIDTH 540 0
DWIDTH 6 0
BBX 5 10 1 -2
BITMAP
20
00
68
98
88
88
88
78
08
70
ENDCHAR
STARTCHAR 0126
ENCODING 294
SWIDTH 630 0
DWIDTH 7 0
BBX 6 8 1 0
BITMAP
84
84
FC
84
FC
84
84
84
ENDCHAR
STARTCHAR 0127
ENCODING 295
SWIDTH 540 0
DWIDTH 6 0
BBX 5 8 1 0
BITMAP
80
C0
B8
C8
88
88
88
88
ENDCHAR
STARTCHAR 0128
ENCODING 296
SWIDTH 180 0
DWIDTH 2 0
BBX 3 10 0 0
BITMAP
E0
00
40
40
40
40
40
40
40
40
ENDCHAR
STARTCHAR 0129
ENCODING 297
SWIDTH 180 0
DWIDTH 2 0
BBX 3 8 0 0
BITMAP
E0
00
40
40
40
40
40
40
ENDCHAR
STARTCHAR 012A
ENCODING 298
SWIDTH 180 0
DWIDTH 2 0
BBX 3 9 0 0
BITMAP
E0
40
40
40
40
40
40
40
40
ENDCHAR
STARTCHAR 012B
ENCODING 299
SWIDTH 180 0
DWIDTH 2 0
BBX 3 7 0 0
BITMAP
E0
40
40
40
40
40
40
ENDCHAR
STARTCHAR 012E
ENCODING 302
SWIDTH 180 0
DWIDTH 2 0
BBX 1 10 1 -2
BITMAP
80
80
80
80
80
80
80
80
80
80
ENDCHAR
STARTCHAR 012F
ENCODING 303
SWIDTH 180 0
DWIDTH 2 0
BBX 1 10 1 -2
BITMAP
80
00
80
80
80
80
80
80
80
80
ENDCHAR
STARTCHAR 0130
ENCODING 304
SWIDTH 180 0
DWIDTH 2 0
BBX 1 10 1 0
BITMAP
80
00
80
80
80
80
80
80
80
80
ENDCHAR
STARTCHAR 0131
ENCODING 305
SWIDTH 180 0
DWIDTH 2 0
BBX 1 6 1 0
BITMAP
80
80
80
80
80
80
ENDCHAR
STARTCHAR 0139
ENCODING 313
SWIDTH 450 0
DWIDTH 5 0
BBX 4 11 1 0
BITMAP
40
80
00
80
80
80
80
80
80
80
F0
ENDCHAR
STARTCHAR 013A
ENCODING 314
SWIDTH 270 0
DWIDTH 3 0
BBX 2 11 1 0
BITMAP
40
80
00
80
80
80
80
80
80
80
C0
ENDCHAR
STARTCHAR 013D
ENCODING 317
SWIDTH 450 0
DWIDTH 5 0
BBX 5 10 0 0
BITMAP
A0
40
40
40
40
40
40
40
40
78
ENDCHAR
STARTCHAR 013E
ENCODING 318
SWIDTH 270 0
DWIDTH 3 0
BBX 3 9 1 0
BITMAP
60
A0
A0
80
80
80
80
80
C0
ENDCHAR
STARTCHAR 0143
ENCODING 323
SWIDTH 630 0
DWIDTH 7 0
BBX 6 11 1 0
BITMAP
08
10
00
84
C4
C4
A4
94
94
8C
84
ENDCHAR
STARTCHAR 0144
ENCODING 324
SWIDTH 540 0
DWIDTH 6 0
BBX 5 9 1 0
BITMAP
10
20
00
F0
88
88
88
88
88
ENDCHAR
STARTCHAR 0147
ENCODING 327
SWIDTH 630 0
DWIDTH 7 0
BBX 6 10 1 0
BITMAP
30
00
84
C4
C4
A4
94
94
8C
84
ENDCHAR
STARTCHAR 0148
ENCODING 328
SWIDTH 540 0
DWIDTH 6 0
BBX 5 8 1 0
BITMAP
50
20
F0
88
88
88
88
88
ENDCHAR
STARTCHAR 014C
ENCODING 332
SWIDTH 720 0
DWIDTH 8 0
BBX 7 9 1 0
BITMAP
30
78
C4
84
82
82
84
84
78
ENDCHAR
STARTCHAR 014D
ENCODING 333
SWIDTH 540 0
DWIDTH 6 0
BBX 5 7 1 0
BITMAP
60
70
88
88
88
88
70
ENDCHAR
STARTCHAR 0152
ENCODING 338
SWIDTH 900 0
DWIDTH 10 0
BBX 10 8 0 0
BITMAP
1FC0
6400
4400
4400
8780
4400
4400
3FC0
ENDCHAR
STARTCHAR 0153
ENCODING 339
SWIDTH 900 0
DWIDTH 10 0
BBX 9 6 1 0
BITMAP
7700
8880
8880
8F00
8880
7780
ENDCHAR
STARTCHAR 0154
ENCODING 340
SWIDTH 540 0
DWIDTH 6 0
BBX 5 11 1 0
BITMAP
10
20
00
F0
88
88
88
F0
90
90
88
ENDCHAR
STARTCHAR 0155
ENCODING 341
SWIDTH 270 0
DWIDTH 3 0
BBX 3 9 1 0
BITMAP
20
40
00
E0
80
80
80
80
80
ENDCHAR
STARTCHAR 0158
ENCODING 344
SWIDTH 540 0
DWIDTH 6 0
BBX 5 10 1 0
BITMAP
70
00
F0
88
88
88
F0
90
90
88
ENDCHAR
STARTCHAR 0159
ENCODING 345
SWIDTH 270 0
DWIDTH 3 0
BBX 3 8 1 0
BITMAP
C0
00
E0
80
80
80
80
80
ENDCHAR
STARTCHAR 015A
ENCODING 346
SWIDTH 540 0
DWIDTH 6 0
BBX 5 11 1 0
BITMAP
10
10
00
70
88
80
C0
38
88
88
70
ENDCHAR
STARTCHAR 015B
ENCODING 347
SWIDTH 450 0
DWIDTH 5 0
BBX 4 9 1 0
BITMAP
20
20
00
E0
90
80
70
90
F0
ENDCHAR
STARTCHAR 015E
ENCODING 350
SWIDTH 540 0
DWIDTH 6 0
BBX 5 11 1 -3
BITMAP
70
88
80
C0
38
88
88
70
40
30
20
ENDCHAR
STARTCHAR 015F
ENCODING 351
SWIDTH 450 0
DWIDTH 5 0
BBX 4 9 1 -3
BITMAP
E0
90
80
70
90
E0
40
20
60
ENDCHAR
STARTCHAR 0160
ENCODING 352
SWIDTH 540 0
DWIDTH 6 0
BBX 5 10 1 0
BITMAP
50
20
70
88
80
C0
38
88
88
70
ENDCHAR
STARTCHAR 0161
ENCODING 353
SWIDTH 450 0
DWIDTH 5 0
BBX 4 8 1 0
BITMAP
E0
00
E0
90
80
70
90
F0
ENDCHAR
STARTCHAR 0162
ENCODING 354
SWIDTH 540 0
DWIDTH 6 0
BBX 6 11 0 -3
BITMAP
FC
10
10
10
10
10
10
10
20
08
10
ENDCHAR
STARTCHAR 0163
ENCODING 355
SWIDTH 360 0
DWIDTH 4 0
BBX 4 11 0 -3
BITMAP
40
40
F0
40
40
40
40
30
20
10
30
ENDCHAR
STARTCHAR 0164
ENCODING 356
SWIDTH 540 0
DWIDTH 6 0
BBX 6 10 0 0
BITMAP
28
10
FC
10
10
10
10
10
10
10
ENDCHAR
STARTCHAR 0165
ENCODING 357
SWIDTH 450 0
DWIDTH 5 0
BBX 5 9 0 0
BITMAP
08
48
48
F0
40
40
40
40
30
ENDCHAR
STARTCHAR 0166
ENCODING 358
SWIDTH 540 0
DWIDTH 6 0
BBX 6 8 0 0
BITMAP
FC
10
10
7C
10
10
10
10
ENDCHAR
STARTCHAR 0167
ENCODING 359
SWIDTH 360 0
DWIDTH 4 0
BBX 4 8 0 0
BITMAP
40
40
F0
40
F0
40
40
30
ENDCHAR
STARTCHAR 0168
ENCODING 360
SWIDTH 630 0
DWIDTH 7 0
BBX 6 10 1 0
BITMAP
70
00
84
84
84
84
84
84
8C
78
ENDCHAR
STARTCHAR 0169
ENCODING 361
SWIDTH 540 0
DWIDTH 6 0
BBX 5 8 1 0
BITMAP
70
00
88
88
88
88
88
F8
ENDCHAR
STARTCHAR 016A
ENCODING 362
SWIDTH 630 0
DWIDTH 7 0
BBX 6 9 1 0
BITMAP
30
84
84
84
84
84
84
8C
78
ENDCHAR
STARTCHAR 016B
ENCODING 363
SWIDTH 540 0
DWIDTH 6 0
BBX 5 7 1 0
BITMAP
60
88
88
88
88
88
F8
ENDCHAR
STARTCHAR 016E
ENCODING 366
SWIDTH 630 0
DWIDTH 7 0
BBX 6 11 1 0
BITMAP
20
50
20
84
84
84
84
84
84
8C
78
ENDCHAR
STARTCHAR 016F
ENCODING 367
SWIDTH 540 0
DWIDTH 6 0
BBX 5 9 1 0
BITMAP
20
60
00
88
88
88
88
88
F8
ENDCHAR
STARTCHAR 0172
ENCODING 370
SWIDTH 630 0
DWIDTH 7 0
BBX 6 10 1 -2
BITMAP
84
84
84
84
84
84
8C
78
20
30
ENDCHAR
STARTCHAR 0173
ENCODING 371
SWIDTH 540 0
DWIDTH 6 0
BBX 5 8 1 -2
BITMAP
88
88
88
88
88
F8
10
08
ENDCHAR
STARTCHAR 0174
ENCODING 372
SWIDTH 990 0
DWIDTH 11 0
BBX 11 10 0 0
BITMAP
0E00
0000
8420
8420
4A40
4A40
4A40
3180
3180
3180
ENDCHAR
STARTCHAR 0175
ENCODING 373
SWIDTH 810 0
DWIDTH 9 0
BBX 9 8 0 0
BITMAP
1C00
0000
8880
4900
5500
5500
5500
2200
ENDCHAR
STARTCHAR 0176
ENCODING 374
SWIDTH 540 0
DWIDTH 6 0
BBX 5 10 1 0
BITMAP
60
10
88
88
50
50
20
20
20
20
ENDCHAR
STARTCHAR 0177
ENCODING 375
SWIDTH 450 0
DWIDTH 5 0
BBX 6 10 0 -2
BITMAP
30
00
84
48
48
30
30
30
20
60
ENDCHAR
STARTCHAR 0178
ENCODING 376
SWIDTH 540 0
DWIDTH 6 0
BBX 5 10 1 0
BITMAP
50
00
88
88
50
50
20
20
20
20
ENDCHAR
STARTCHAR 0179
ENCODING 377
SWIDTH 540 0
DWIDTH 6 0
BBX 5 11 1 0
BITMAP
10
20
00
F8
08
10
20
60
40
80
F8
ENDCHAR
STARTCHAR 017A
ENCODING 378
SWIDTH 450 0
DWIDTH 5 0
BBX 4 8 1 1
BITMAP
20
00
F0
10
20
40
80
F0
ENDCHAR
STARTCHAR 017B
ENCODING 379
SWIDTH 540 0
DWIDTH 6 0
BBX 5 10 1 0
BITMAP
20
00
F8
08
10
20
60
40
80
F8
ENDCHAR
STARTCHAR 017C
ENCODING 380
SWIDTH 450 0
DWIDTH 5 0
BBX 4 8 1 0
BITMAP
40
00
F0
10
20
40
80
F0
ENDCHAR
STARTCHAR 017D
ENCODING 381
SWIDTH 540 0
DWIDTH 6 0
BBX 5 10 1 0
BITMAP
50
20
F8
08
10
20
60
40
80
F8
ENDCHAR
STARTCHAR 017E
ENCODING 382
SWIDTH 450 0
DWIDTH 5 0
BBX 4 8 1 0
BITMAP
E0
00
F0
10
20
40
80
F0
ENDCHAR
STARTCHAR 01A0
ENCODING 416
SWIDTH 720 0
DWIDTH 8 0
BBX 7 9 1 0
BITMAP
04
7C
C4
84
82
82
84
84
78
ENDCHAR
STARTCHAR 01A1
ENCODING 417
SWIDTH 540 0
DWIDTH 6 0
BBX 5 7 1 0
BITMAP
08
78
88
88
88
88
70
ENDCHAR
STARTCHAR 01AF
ENCODING 431
SWIDTH 630 0
DWIDTH 7 0
BBX 7 9 1 0
BITMAP
02
86
84
84
84
84
84
8C
78
ENDCHAR
STARTCHAR 01B0
ENCODING 432
SWIDTH 540 0
DWIDTH 6 0
BBX 6 7 1 0
BITMAP
04
8C
88
88
88
88
F8
ENDCHAR
STARTCHAR 02C6
ENCODING 710
SWIDTH 360 0
DWIDTH 4 0
BBX 3 1 1 7
BITMAP
E0
ENDCHAR
STARTCHAR 02C7
ENCODING 711
SWIDTH 360 0
DWIDTH 4 0
BBX 3 1 1 7
BITMAP
E0
ENDCHAR
STARTCHAR 02D8
ENCODING 728
SWIDTH 360 0
DWIDTH 4 0
BBX 3 1 1 7
BITMAP
E0
ENDCHAR
STARTCHAR 02D9
ENCODING 729
SWIDTH 90 0
DWIDTH 1 0
BBX 2 1 0 7
BITMAP
C0
ENDCHAR
STARTCHAR 02DA
ENCODING 730
SWIDTH 180 0
DWIDTH 2 0
BBX 2 2 0 7
BITMAP
40
C0
ENDCHAR
STARTCHAR 02DB
ENCODING 731
SWIDTH 180 0
DWIDTH 2 0
BBX 2 2 0 -2
BITMAP
80
C0
ENDCHAR
STARTCHAR 02DC
ENCODING 732
SWIDTH 360 0
DWIDTH 4 0
BBX 3 1 1 7
BITMAP
E0
ENDCHAR
STARTCHAR 0300
ENCODING 768
SWIDTH 0 0
DWIDTH 0 0
BBX 1 2 -2 7
BITMAP
80
80
ENDCHAR
STARTCHAR 0301
ENCODING 769
SWIDTH 0 0
DWIDTH 0 0
BBX 2 2 -2 7
BITMAP
40
80
ENDCHAR
STARTCHAR 0302
ENCODING 770
SWIDTH 0 0
DWIDTH 0 0
BBX 2 1 -3 7
BITMAP
C0
ENDCHAR
STARTCHAR 0303
ENCODING 771
SWIDTH 0 0
DWIDTH 0 0
BBX 3 1 -3 7
BITMAP
E0
ENDCHAR
STARTCHAR 0304
ENCODING 772
SWIDTH 0 0
DWIDTH 0 0
BBX 3 1 -4 7
BITMAP
E0
ENDCHAR
STARTCHAR 0306
ENCODING 774
SWIDTH 0 0
DWIDTH 0 0
BBX 3 1 -4 7
BITMAP
E0
ENDCHAR
STARTCHAR 0307
ENCODING 775
SWIDTH 0 0
DWIDTH 0 0
BBX 1 1 -2 7
BITMAP
80
ENDCHAR
STARTCHAR 0308
ENCODING 776
SWIDTH 0 0
DWIDTH 0 0
BBX 3 1 -4 7
BITMAP
A0
ENDCHAR
STARTCHAR 0309
ENCODING 777
SWIDTH 0 0
DWIDTH 0 0
BBX 3 2 -3 7
BITMAP
E0
40
ENDCHAR
STARTCHAR 030A
ENCODING 778
SWIDTH 0 0
DWIDTH 0 0
BBX 2 2 -3 7
BITMAP
40
C0
ENDCHAR
STARTCHAR 030C
ENCODING 780
SWIDTH 0 0
DWIDTH 0 0
BBX 3 1 -4 7
BITMAP
E0
ENDCHAR
STARTCHAR 031B
ENCODING 795
SWIDTH 0 0
DWIDTH 0 0
BBX 2 2 -2 6
BITMAP
40
80
ENDCHAR
STARTCHAR 0323
ENCODING 803
SWIDTH 0 0
DWIDTH 0 0
BBX 1 1 -1 -2
BITMAP
80
ENDCHAR
STARTCHAR 0327
ENCODING 807
SWIDTH 0 0
DWIDTH 0 0
BBX 2 3 -2 -3
BITMAP
80
40
80
ENDCHAR
STARTCHAR 0328
ENCODING 808
SWIDTH 0 0
DWIDTH 0 0
BBX 2 2 -2 -2
BITMAP
80
C0
ENDCHAR
STARTCHAR 1E80
ENCODING 7808
SWIDTH 990 0
DWIDTH 11 0
BBX 11 11 0 0
BITMAP
0800
0800
0000
8420
8420
4A40
4A40
4A40
3180
3180
3180
ENDCHAR
STARTCHAR 1E81
ENCODING 7809
SWIDTH 810 0
DWIDTH 9 0
BBX 9 9 0 0
BITMAP
1000
1000
0000
8880
4900
5500
5500
5500
2200
ENDCHAR
STARTCHAR 1E82
ENCODING 7810
SWIDTH 990 0
DWIDTH 11 0
BBX 11 11 0 0
BITMAP
0200
0200
0000
8420
8420
4A40
4A40
4A40
3180
3180
3180
ENDCHAR
STARTCHAR 1E83
ENCODING 7811
SWIDTH 810 0
DWIDTH 9 0
BBX 9 9 0 0
BITMAP
0400
0400
0000
8880
4900
5500
5500
5500
2200
ENDCHAR
STARTCHAR 1E84
ENCODING 7812
SWIDTH 990 0
DWIDTH 11 0
BBX 11 10 0 0
BITMAP
0A00
0000
8420
8420
4A40
4A40
4A40
3180
3180
3180
ENDCHAR
STARTCHAR 1E85
ENCODING 7813
SWIDTH 810 0
DWIDTH 9 0
BBX 9 8 0 0
BITMAP
1400
0000
8880
4900
5500
5500
5500
2200
ENDCHAR
STARTCHAR 1EA0
ENCODING 7840
SWIDTH 630 0
DWIDTH 7 0
BBX 6 10 1 -2
BITMAP
20
30
50
50
48
F8
84
84
00
20
ENDCHAR
STARTCHAR 1EA1
ENCODING 7841
SWIDTH 540 0
DWIDTH 6 0
BBX 5 8 1 -2
BITMAP
68
98
88
88
88
F8
00
20
ENDCHAR
STARTCHAR 1EA2
ENCODING 7842
SWIDTH 630 0
DWIDTH 7 0
BBX 6 11 1 0
BITMAP
20
10
00
20
30
50
50
48
F8
84
84
ENDCHAR
STARTCHAR 1EA3
ENCODING 7843
SWIDTH 540 0
DWIDTH 6 0
BBX 5 9 1 0
BITMAP
20
10
00
68
98
88
88
88
F8
ENDCHAR
STARTCHAR 1EA4
ENCODING 7844
SWIDTH 630 0
DWIDTH 7 0
BBX 6 12 1 0
BITMAP
04
08
30
40
20
30
50
50
48
F8
84
84
ENDCHAR
STARTCHAR 1EA5
ENCODING 7845
SWIDTH 540 0
DWIDTH 6 0
BBX 6 10 1 0
BITMAP
04
08
60
10
68
98
88
88
88
F8
ENDCHAR
STARTCHAR 1EA6
ENCODING 7846
SWIDTH 630 0
DWIDTH 7 0
BBX 6 12 1 0
BITMAP
10
08
30
40
20
30
50
50
48
F8
84
84
ENDCHAR
STARTCHAR 1EA7
ENCODING 7847
SWIDTH 540 0
DWIDTH 6 0
BBX 5 10 1 0
BITMAP
10
10
60
10
68
98
88
88
88
F8
ENDCHAR
STARTCHAR 1EA8
ENCODING 7848
SWIDTH 630 0
DWIDTH 7 0
BBX 6 12 1 0
BITMAP
1C
08
30
40
20
30
50
50
48
F8
84
84
ENDCHAR
STARTCHAR 1EA9
ENCODING 7849
SWIDTH 540 0
DWIDTH 6 0
BBX 5 10 1 0
BITMAP
18
08
60
10
68
98
88
88
88
F8
ENDCHAR
STARTCHAR 1EAA
ENCODING 7850
SWIDTH 630 0
DWIDTH 7 0
BBX 6 12 1 0
BITMAP
60
00
30
40
20
30
50
50
48
F8
84
84
ENDCHAR
STARTCHAR 1EAB
ENCODING 7851
SWIDTH 540 0
DWIDTH 6 0
BBX 5 10 1 0
BITMAP
70
00
60
10
68
98
88
88
88
F8
ENDCHAR
STARTCHAR 1EAC
ENCODING 7852
SWIDTH 630 0
DWIDTH 7 0
BBX 6 12 1 -2
BITMAP
30
40
20
30
50
50
48
F8
84
84
00
20
ENDCHAR
STARTCHAR 1EAD
ENCODING 7853
SWIDTH 540 0
DWIDTH 6 0
BBX 5 10 1 -2
BITMAP
60
10
68
98
88
88
88
F8
00
20
ENDCHAR
STARTCHAR 1EAE
ENCODING 7854
SWIDTH 630 0
DWIDTH 7 0
BBX 6 12 1 0
BITMAP
10
00
40
30
20
30
50
50
48
F8
84
84
ENDCHAR
STARTCHAR 1EAF
ENCODING 7855
SWIDTH 540 0
DWIDTH 6 0
BBX 5 10 1 0
BITMAP
10
20
50
20
68
98
88
88
88
F8
ENDCHAR
STARTCHAR 1EB0
ENCODING 7856
SWIDTH 630 0
DWIDTH 7 0
BBX 6 12 1 0
BITMAP
40
20
40
30
20
30
50
50
48
F8
84
84
ENDCHAR
STARTCHAR 1EB1
ENCODING 7857
SWIDTH 540 0
DWIDTH 6 0
BBX 5 10 1 0
BITMAP
40
20
50
20
68
98
88
88
88
F8
ENDCHAR
STARTCHAR 1EB2
ENCODING 7858
SWIDTH 630 0
DWIDTH 7 0
BBX 6 12 1 0
BITMAP
30
10
40
30
20
30
50
50
48
F8
84
84
ENDCHAR
STARTCHAR 1EB3
ENCODING 7859
SWIDTH 540 0
DWIDTH 6 0
BBX 5 10 1 0
BITMAP
70
20
50
20
68
98
88
88
88
F8
ENDCHAR
STARTCHAR 1EB4
ENCODING 7860
SWIDTH 630 0
DWIDTH 7 0
BBX 6 12 1 0
BITMAP
20
50
40
30
20
30
50
50
48
F8
84
84
ENDCHAR
STARTCHAR 1EB5
ENCODING 7861
SWIDTH 540 0
DWIDTH 6 0
BBX 5 10 1 0
BITMAP
50
20
50
20
68
98
88
88
88
F8
ENDCHAR
STARTCHAR 1EB6
ENCODING 7862
SWIDTH 630 0
DWIDTH 7 0
BBX 6 12 1 -2
BITMAP
40
30
20
30
50
50
48
F8
84
84
00
20
ENDCHAR
STARTCHAR 1EB7
ENCODING 7863
SWIDTH 540 0
DWIDTH 6 0
BBX 5 10 1 -2
BITMAP
50
20
68
98
88
88
88
F8
00
20
ENDCHAR
STARTCHAR 1EB8
ENCODING 7864
SWIDTH 540 0
DWIDTH 6 0
BBX 5 10 1 -2
BITMAP
F8
80
80
80
F0
80
80
F8
00
20
ENDCHAR
STARTCHAR 1EB9
ENCODING 7865
SWIDTH 540 0
DWIDTH 6 0
BBX 5 8 1 -2
BITMAP
70
88
88
F0
88
70
00
20
ENDCHAR
STARTCHAR 1EBA
ENCODING 7866
SWIDTH 540 0
DWIDTH 6 0
BBX 5 11 1 0
BITMAP
20
20
00
F8
80
80
80
F0
80
80
F8
ENDCHAR
STARTCHAR 1EBB
ENCODING 7867
SWIDTH 540 0
DWIDTH 6 0
BBX 5 9 1 0
BITMAP
20
20
00
70
88
88
F0
88
70
ENDCHAR
STARTCHAR 1EBC
ENCODING 7868
SWIDTH 540 0
DWIDTH 6 0
BBX 5 10 1 0
BITMAP
70
00
F8
80
80
80
F0
80
80
F8
ENDCHAR
STARTCHAR 1EBD
ENCODING 7869
SWIDTH 540 0
DWIDTH 6 0
BBX 5 8 1 0
BITMAP
70
00
70
88
88
F0
88
70
ENDCHAR
STARTCHAR 1EBE
ENCODING 7870
SWIDTH 540 0
DWIDTH 6 0
BBX 5 12 1 0
BITMAP
08
08
60
10
F8
80
80
80
F0
80
80
F8
ENDCHAR
STARTCHAR 1EBF
ENCODING 7871
SWIDTH 540 0
DWIDTH 6 0
BBX 5 10 1 0
BITMAP
08
08
60
10
70
88
88
F0
88
70
ENDCHAR
STARTCHAR 1EC0
ENCODING 7872
SWIDTH 540 0
DWIDTH 6 0
BBX 5 12 1 0
BITMAP
20
10
60
10
F8
80
80
80
F0
80
80
F8
ENDCHAR
STARTCHAR 1EC1
ENCODING 7873
SWIDTH 540 0
DWIDTH 6 0
BBX 5 10 1 0
BITMAP
10
10
60
10
70
88
88
F0
88
70
ENDCHAR
STARTCHAR 1EC2
ENCODING 7874
SWIDTH 540 0
DWIDTH 6 0
BBX 5 12 1 0
BITMAP
18
08
60
10
F8
80
80
80
F0
80
80
F8
ENDCHAR
STARTCHAR 1EC3
ENCODING 7875
SWIDTH 540 0
DWIDTH 6 0
BBX 5 10 1 0
BITMAP
18
08
60
10
70
88
88
F0
88
70
ENDCHAR
STARTCHAR 1EC4
ENCODING 7876
SWIDTH 540 0
DWIDTH 6 0
BBX 5 12 1 0
BITMAP
50
20
60
10
F8
80
80
80
F0
80
80
F8
ENDCHAR
STARTCHAR 1EC5
ENCODING 7877
SWIDTH 540 0
DWIDTH 6 0
BBX 5 10 1 0
BITMAP
70
00
60
10
70
88
88
F0
88
70
ENDCHAR
STARTCHAR 1EC6
ENCODING 7878
SWIDTH 540 0
DWIDTH 6 0
BBX 5 12 1 -2
BITMAP
60
10
F8
80
80
80
F0
80
80
F8
00
20
ENDCHAR
STARTCHAR 1EC7
ENCODING 7879
SWIDTH 540 0
DWIDTH 6 0
BBX 5 10 1 -2
BITMAP
60
10
70
88
88
F0
88
70
00
20
ENDCHAR
STARTCHAR 1EC8
ENCODING 7880
SWIDTH 180 0
DWIDTH 2 0
BBX 2 11 1 0
BITMAP
80
40
80
80
80
80
80
80
80
80
80
ENDCHAR
STARTCHAR 1EC9
ENCODING 7881
SWIDTH 180 0
DWIDTH 2 0
BBX 2 9 1 0
BITMAP
80
40
00
80
80
80
80
80
80
ENDCHAR
STARTCHAR 1ECA
ENCODING 7882
SWIDTH 180 0
DWIDTH 2 0
BBX 1 10 1 -2
BITMAP
80
80
80
80
80
80
80
80
00
80
ENDCHAR
STARTCHAR 1ECB
ENCODING 7883
SWIDTH 180 0
DWIDTH 2 0
BBX 1 10 1 -2
BITMAP
80
00
80
80
80
80
80
80
00
80
ENDCHAR
STARTCHAR 1ECC
ENCODING 7884
SWIDTH 720 0
DWIDTH 8 0
BBX 7 10 1 -2
BITMAP
78
C4
84
82
82
84
84
78
00
10
ENDCHAR
STARTCHAR 1ECD
ENCODING 7885
SWIDTH 540 0
DWIDTH 6 0
BBX 5 8 1 -2
BITMAP
70
88
88
88
88
70
00
20
ENDCHAR
STARTCHAR 1ECE
ENCODING 7886
SWIDTH 720 0
DWIDTH 8 0
BBX 7 11 1 0
BITMAP
30
10
00
78
C4
84
82
82
84
84
78
ENDCHAR
STARTCHAR 1ECF
ENCODING 7887
SWIDTH 540 0
DWIDTH 6 0
BBX 5 9 1 0
BITMAP
20
20
00
70
88
88
88
88
70
ENDCHAR
STARTCHAR 1ED0
ENCODING 7888
SWIDTH 720 0
DWIDTH 8 0
BBX 7 12 1 0
BITMAP
04
04
30
00
78
C4
84
82
82
84
84
78
ENDCHAR
STARTCHAR 1ED1
ENCODING 7889
SWIDTH 540 0
DWIDTH 6 0
BBX 5 10 1 0
BITMAP
08
08
60
10
70
88
88
88
88
70
ENDCHAR
STARTCHAR 1ED2
ENCODING 7890
SWIDTH 720 0
DWIDTH 8 0
BBX 7 12 1 0
BITMAP
10
08
30
00
78
C4
84
82
82
84
84
78
ENDCHAR
STARTCHAR 1ED3
ENCODING 7891
SWIDTH 540 0
DWIDTH 6 0
BBX 5 10 1 0
BITMAP
10
10
60
10
70
88
88
88
88
70
ENDCHAR
STARTCHAR 1ED4
ENCODING 7892
SWIDTH 720 0
DWIDTH 8 0
BBX 7 12 1 0
BITMAP
0C
04
30
00
78
C4
84
82
82
84
84
78
ENDCHAR
STARTCHAR 1ED5
ENCODING 7893
SWIDTH 540 0
DWIDTH 6 0
BBX 5 10 1 0
BITMAP
18
08
60
10
70
88
88
88
88
70
ENDCHAR
STARTCHAR 1ED6
ENCODING 7894
SWIDTH 720 0
DWIDTH 8 0
BBX 7 12 1 0
BITMAP
28
10
30
00
78
C4
84
82
82
84
84
78
ENDCHAR
STARTCHAR 1ED7
ENCODING 7895
SWIDTH 540 0
DWIDTH 6 0
BBX 5 10 1 0
BITMAP
70
00
60
10
70
88
88
88
88
70
ENDCHAR
STARTCHAR 1ED8
ENCODING 7896
SWIDTH 720 0
DWIDTH 8 0
BBX 7 12 1 -2
BITMAP
30
00
78
C4
84
82
82
84
84
78
00
10
ENDCHAR
STARTCHAR 1ED9
ENCODING 7897
SWIDTH 540 0
DWIDTH 6 0
BBX 5 10 1 -2
BITMAP
60
10
70
88
88
88
88
70
00
20
ENDCHAR
STARTCHAR 1EDA
ENCODING 7898
SWIDTH 720 0
DWIDTH 8 0
BBX 7 11 1 0
BITMAP
08
10
04
7C
C4
84
82
82
84
84
78
ENDCHAR
STARTCHAR 1EDB
ENCODING 7899
SWIDTH 540 0
DWIDTH 6 0
BBX 5 9 1 0
BITMAP
10
20
08
78
88
88
88
88
70
ENDCHAR
STARTCHAR 1EDC
ENCODING 7900
SWIDTH 720 0
DWIDTH 8 0
BBX 7 11 1 0
BITMAP
40
20
04
7C
C4
84
82
82
84
84
78
ENDCHAR
STARTCHAR 1EDD
ENCODING 7901
SWIDTH 540 0
DWIDTH 6 0
BBX 5 9 1 0
BITMAP
40
40
08
78
88
88
88
88
70
ENDCHAR
STARTCHAR 1EDE
ENCODING 7902
SWIDTH 720 0
DWIDTH 8 0
BBX 7 11 1 0
BITMAP
30
10
04
7C
C4
84
82
82
84
84
78
ENDCHAR
STARTCHAR 1EDF
ENCODING 7903
SWIDTH 540 0
DWIDTH 6 0
BBX 5 9 1 0
BITMAP
20
20
08
78
88
88
88
88
70
ENDCHAR
STARTCHAR 1EE0
ENCODING 7904
SWIDTH 720 0
DWIDTH 8 0
BBX 7 10 1 0
BITMAP
38
04
7C
C4
84
82
82
84
84
78
ENDCHAR
STARTCHAR 1EE1
ENCODING 7905
SWIDTH 540 0
DWIDTH 6 0
BBX 5 8 1 0
BITMAP
70
08
78
88
88
88
88
70
ENDCHAR
STARTCHAR 1EE2
ENCODING 7906
SWIDTH 720 0
DWIDTH 8 0
BBX 7 11 1 -2
BITMAP
04
7C
C4
84
82
82
84
84
78
00
10
ENDCHAR
STARTCHAR 1EE3
ENCODING 7907
SWIDTH 540 0
DWIDTH 6 0
BBX 5 9 1 -2
BITMAP
08
78
88
88
88
88
70
00
20
ENDCHAR
STARTCHAR 1EE4
ENCODING 7908
SWIDTH 630 0
DWIDTH 7 0
BBX 6 10 1 -2
BITMAP
84
84
84
84
84
84
8C
78
00
20
ENDCHAR
STARTCHAR 1EE5
ENCODING 7909
SWIDTH 540 0
DWIDTH 6 0
BBX 5 8 1 -2
BITMAP
88
88
88
88
88
F8
00
20
ENDCHAR
STARTCHAR 1EE6
ENCODING 7910
SWIDTH 630 0
DWIDTH 7 0
BBX 6 11 1 0
BITMAP
20
10
00
84
84
84
84
84
84
8C
78
ENDCHAR
STARTCHAR 1EE7
ENCODING 7911
SWIDTH 540 0
DWIDTH 6 0
BBX 5 9 1 0
BITMAP
60
20
00
88
88
88
88
88
F8
ENDCHAR
STARTCHAR 1EE8
ENCODING 7912
SWIDTH 630 0
DWIDTH 7 0
BBX 7 11 1 0
BITMAP
08
10
02
86
84
84
84
84
84
8C
78
ENDCHAR
STARTCHAR 1EE9
ENCODING 7913
SWIDTH 540 0
DWIDTH 6 0
BBX 6 9 1 0
BITMAP
10
20
04
8C
88
88
88
88
F8
ENDCHAR
STARTCHAR 1EEA
ENCODING 7914
SWIDTH 630 0
DWIDTH 7 0
BBX 7 11 1 0
BITMAP
40
20
02
86
84
84
84
84
84
8C
78
ENDCHAR
STARTCHAR 1EEB
ENCODING 7915
SWIDTH 540 0
DWIDTH 6 0
BBX 6 9 1 0
BITMAP
40
40
04
8C
88
88
88
88
F8
ENDCHAR
STARTCHAR 1EEC
ENCODING 7916
SWIDTH 630 0
DWIDTH 7 0
BBX 7 11 1 0
BITMAP
20
10
02
86
84
84
84
84
84
8C
78
ENDCHAR
STARTCHAR 1EED
ENCODING 7917
SWIDTH 540 0
DWIDTH 6 0
BBX 6 9 1 0
BITMAP
60
20
04
8C
88
88
88
88
F8
ENDCHAR
STARTCHAR 1EEE
ENCODING 7918
SWIDTH 630 0
DWIDTH 7 0
BBX 7 10 1 0
BITMAP
70
02
86
84
84
84
84
84
8C
78
ENDCHAR
STARTCHAR 1EEF
ENCODING 7919
SWIDTH 540 0
DWIDTH 6 0
BBX 6 8 1 0
BITMAP
70
04
8C
88
88
88
88
F8
ENDCHAR
STARTCHAR 1EF0
ENCODING 7920
SWIDTH 630 0
DWIDTH 7 0
BBX 7 11 1 -2
BITMAP
02
86
84
84
84
84
84
8C
78
00
20
ENDCHAR
STARTCHAR 1EF1
ENCODING 7921
SWIDTH 540 0
DWIDTH 6 0
BBX 6 9 1 -2
BITMAP
04
8C
88
88
88
88
F8
00
20
ENDCHAR
STARTCHAR 1EF2
ENCODING 7922
SWIDTH 540 0
DWIDTH 6 0
BBX 5 11 1 0
BITMAP
40
40
00
88
88
50
50
20
20
20
20
ENDCHAR
STARTCHAR 1EF3
ENCODING 7923
SWIDTH 450 0
DWIDTH 5 0
BBX 6 11 0 -2
BITMAP
40
20
00
84
48
48
30
30
30
20
60
ENDCHAR
STARTCHAR 1EF4
ENCODING 7924
SWIDTH 540 0
DWIDTH 6 0
BBX 5 10 1 -2
BITMAP
88
88
50
50
20
20
20
20
00
20
ENDCHAR
STARTCHAR 1EF5
ENCODING 7925
SWIDTH 450 0
DWIDTH 5 0
BBX 6 8 0 -2
BITMAP
84
48
48
30
30
30
20
68
ENDCHAR
STARTCHAR 1EF6
ENCODING 7926
SWIDTH 540 0
DWIDTH 6 0
BBX 5 11 1 0
BITMAP
20
10
00
88
88
50
50
20
20
20
20
ENDCHAR
STARTCHAR 1EF7
ENCODING 7927
SWIDTH 450 0
DWIDTH 5 0
BBX 6 11 0 -2
BITMAP
30
10
00
84
48
48
30
30
30
20
60
ENDCHAR
STARTCHAR 1EF8
ENCODING 7928
SWIDTH 540 0
DWIDTH 6 0
BBX 5 10 1 0
BITMAP
70
00
88
88
50
50
20
20
20
20
ENDCHAR
STARTCHAR 1EF9
ENCODING 7929
SWIDTH 450 0
DWIDTH 5 0
BBX 6 10 0 -2
BITMAP
70
00
84
48
48
30
30
30
20
60
ENDCHAR
STARTCHAR 2013
ENCODING 8211
SWIDTH 630 0
DWIDTH 7 0
BBX 5 1 1 3
BITMAP
F8
ENDCHAR
STARTCHAR 2014
ENCODING 8212
SWIDTH 720 0
DWIDTH 8 0
BBX 6 1 1 3
BITMAP
FC
ENDCHAR
STARTCHAR 2018
ENCODING 8216
SWIDTH 270 0
DWIDTH 3 0
BBX 1 2 1 6
BITMAP
80
80
ENDCHAR
STARTCHAR 2019
ENCODING 8217
SWIDTH 180 0
DWIDTH 2 0
BBX 1 3 1 5
BITMAP
80
80
80
ENDCHAR
STARTCHAR 201A
ENCODING 8218
SWIDTH 270 0
DWIDTH 3 0
BBX 1 3 1 -2
BITMAP
80
80
80
ENDCHAR
STARTCHAR 201C
ENCODING 8220
SWIDTH 450 0
DWIDTH 5 0
BBX 4 2 1 6
BITMAP
A0
B0
ENDCHAR
STARTCHAR 201D
ENCODING 8221
SWIDTH 450 0
DWIDTH 5 0
BBX 4 3 1 5
BITMAP
B0
90
80
ENDCHAR
STARTCHAR 201E
ENCODING 8222
SWIDTH 450 0
DWIDTH 5 0
BBX 4 3 1 -2
BITMAP
B0
90
80
ENDCHAR
STARTCHAR 2020
ENCODING 8224
SWIDTH 540 0
DWIDTH 6 0
BBX 4 11 1 -3
BITMAP
20
20
F0
20
20
20
20
20
20
20
20
ENDCHAR
STARTCHAR 2021
ENCODING 8225
SWIDTH 540 0
DWIDTH 6 0
BBX 4 11 1 -3
BITMAP
20
20
F0
20
20
20
20
20
F0
20
20
ENDCHAR
STARTCHAR 2022
ENCODING 8226
SWIDTH 360 0
DWIDTH 4 0
BBX 2 2 1 3
BITMAP
C0
C0
ENDCHAR
STARTCHAR 2026
ENCODING 8230
SWIDTH 720 0
DWIDTH 8 0
BBX 7 1 1 0
BITMAP
92
ENDCHAR
STARTCHAR 2030
ENCODING 8240
SWIDTH 1170 0
DWIDTH 13 0
BBX 13 8 0 0
BITMAP
6200
A400
A400
4800
0800
13B8
12A8
23B8
ENDCHAR
STARTCHAR 2039
ENCODING 8249
SWIDTH 360 0
DWIDTH 4 0
BBX 3 5 0 1
BITMAP
20
40
80
40
20
ENDCHAR
STARTCHAR 203A
ENCODING 8250
SWIDTH 360 0
DWIDTH 4 0
BBX 3 5 1 1
BITMAP
80
40
20
40
80
ENDCHAR
STARTCHAR 2044
ENCODING 8260
SWIDTH 450 0
DWIDTH 5 0
BBX 5 8 0 0
BITMAP
08
08
10
20
20
40
40
80
ENDCHAR
STARTCHAR 2070
ENCODING 8304
SWIDTH 270 0
DWIDTH 3 0
BBX 3 4 0 4
BITMAP
E0
A0
A0
60
ENDCHAR
STARTCHAR 2074
ENCODING 8308
SWIDTH 270 0
DWIDTH 3 0
BBX 3 4 0 4
BITMAP
60
A0
E0
20
ENDCHAR
STARTCHAR 2075
ENCODING 8309
SWIDTH 270 0
DWIDTH 3 0
BBX 3 4 0 4
BITMAP
C0
E0
20
60
ENDCHAR
STARTCHAR 2076
ENCODING 8310
SWIDTH 270 0
DWIDTH 3 0
BBX 3 4 0 4
BITMAP
40
E0
A0
60
ENDCHAR
STARTCHAR 2077
ENCODING 8311
SWIDTH 270 0
DWIDTH 3 0
BBX 2 4 1 4
BITMAP
C0
80
80
80
ENDCHAR
STARTCHAR 2078
ENCODING 8312
SWIDTH 270 0
DWIDTH 3 0
BBX 3 4 0 4
BITMAP
E0
60
A0
60
ENDCHAR
STARTCHAR 2079
ENCODING 8313
SWIDTH 270 0
DWIDTH 3 0
BBX 3 4 0 4
BITMAP
E0
A0
60
40
ENDCHAR
STARTCHAR 2080
ENCODING 8320
SWIDTH 270 0
DWIDTH 3 0
BBX 3 4 0 -2
BITMAP
E0
A0
A0
60
ENDCHAR
STARTCHAR 2081
ENCODING 8321
SWIDTH 180 0
DWIDTH 2 0
BBX 3 4 0 -3
BITMAP
C0
40
40
E0
ENDCHAR
STARTCHAR 2082
ENCODING 8322
SWIDTH 270 0
DWIDTH 3 0
BBX 3 4 0 -3
BITMAP
E0
20
40
E0
ENDCHAR
STARTCHAR 2083
ENCODING 8323
SWIDTH 270 0
DWIDTH 3 0
BBX 3 4 0 -2
BITMAP
E0
60
20
60
ENDCHAR
STARTCHAR 2084
ENCODING 8324
SWIDTH 270 0
DWIDTH 3 0
BBX 3 4 0 -3
BITMAP
60
A0
E0
20
ENDCHAR
STARTCHAR 2085
ENCODING 8325
SWIDTH 270 0
DWIDTH 3 0
BBX 3 4 0 -3
BITMAP
C0
E0
20
60
ENDCHAR
STARTCHAR 2086
ENCODING 8326
SWIDTH 270 0
DWIDTH 3 0
BBX 3 4 0 -3
BITMAP
40
E0
A0
60
ENDCHAR
STARTCHAR 2087
ENCODING 8327
SWIDTH 270 0
DWIDTH 3 0
BBX 2 4 1 -3
BITMAP
C0
80
80
80
ENDCHAR
STARTCHAR 2088
ENCODING 8328
SWIDTH 270 0
DWIDTH 3 0
BBX 3 4 0 -2
BITMAP
E0
60
A0
60
ENDCHAR
STARTCHAR 2089
ENCODING 8329
SWIDTH 270 0
DWIDTH 3 0
BBX 3 4 0 -3
BITMAP
E0
A0
60
40
ENDCHAR
STARTCHAR 20AB
ENCODING 8363
SWIDTH 540 0
DWIDTH 6 0
BBX 6 9 0 0
BITMAP
04
0C
74
4C
84
44
7C
00
7C
ENDCHAR
STARTCHAR 20AC
ENCODING 8364
SWIDTH 630 0
DWIDTH 7 0
BBX 7 8 0 0
BITMAP
1C
26
42
F0
40
70
22
1C
ENDCHAR
STARTCHAR 2122
ENCODING 8482
SWIDTH 360 0
DWIDTH 4 0
BBX 4 1 0 6
BITMAP
F0
ENDCHAR
STARTCHAR 215B
ENCODING 8539
SWIDTH 810 0
DWIDTH 9 0
BBX 9 8 0 0
BITMAP
4100
C200
4400
E400
0980
0980
1280
2180
ENDCHAR
STARTCHAR 215C
ENCODING 8540
SWIDTH 810 0
DWIDTH 9 0
BBX 8 8 1 0
BITMAP
C4
44
48
48
93
25
27
47
ENDCHAR
STARTCHAR 215D
ENCODING 8541
SWIDTH 810 0
DWIDTH 9 0
BBX 9 8 0 0
BITMAP
6100
8200
6400
6400
0980
0980
1280
2180
ENDCHAR
STARTCHAR 215E
ENCODING 8542
SWIDTH 900 0
DWIDTH 10 0
BBX 9 8 0 0
BITMAP
E000
2200
4400
4400
0980
1180
1180
2180
ENDCHAR
STARTCHAR 2212
ENCODING 8722
SWIDTH 540 0
DWIDTH 6 0
BBX 5 1 1 3
BITMAP
F8
ENDCHAR
STARTCHAR 2215
ENCODING 8725
SWIDTH 450 0
DWIDTH 5 0
BBX 4 8 1 0
BITMAP
10
10
20
20
40
40
80
80
ENDCHAR
STARTCHAR 2248
ENCODING 8776
SWIDTH 540 0
DWIDTH 6 0
BBX 4 3 1 2
BITMAP
F0
00
F0
ENDCHAR
STARTCHAR 2260
ENCODING 8800
SWIDTH 720 0
DWIDTH 8 0
BBX 6 7 1 0
BITMAP
08
08
FC
20
FC
40
40
ENDCHAR
STARTCHAR 2264
ENCODING 8804
SWIDTH 540 0
DWIDTH 6 0
BBX 5 7 1 0
BITMAP
08
30
C0
60
18
00
F8
ENDCHAR
STARTCHAR 2265
ENCODING 8805
SWIDTH 540 0
DWIDTH 6 0
BBX 5 7 1 0
BITMAP
80
60
18
30
C0
00
F8
ENDCHAR
ENDFONT
